<svg width="378" height="397" xmlns="http://www.w3.org/2000/svg" xmlns:xlink="http://www.w3.org/1999/xlink" overflow="hidden"><g transform="translate(-336 -141)"><path d="M337 377C337 288.634 404.829 217 488.5 217 539 217 589.5 217 640 217 640 270.333 640 323.667 640 377 640 465.366 572.171 537 488.5 537 404.829 537 337 465.366 337 377Z" fill="#ECDFF5" fill-rule="evenodd"/><path d="M593.37 366.684C601.281 371.252 603.991 381.367 599.424 389.278L563.11 452.176C558.542 460.087 548.427 462.797 540.516 458.23L522.456 447.803C514.546 443.236 511.835 433.121 516.403 425.21L552.717 362.311C557.284 354.401 567.4 351.69 575.31 356.258Z" stroke="#ECDFF5" stroke-width="1.33333" stroke-miterlimit="8" fill="#7030A0" fill-rule="evenodd"/><path d="M0 18.8976C-3.0074e-15 8.46076 8.46076-6.0148e-15 18.8976-6.0148e-15L170.079 0C180.516-3.0074e-15 188.976 8.46076 188.976 18.8976L188.976 18.8976C188.976 29.3345 180.516 37.7953 170.079 37.7953L18.8976 37.7953C8.46076 37.7953-3.0074e-15 29.3345 0 18.8976Z" stroke="#ECDFF5" stroke-width="1.33333" stroke-miterlimit="8" fill="#7030A0" fill-rule="evenodd" transform="matrix(-0.866025 -0.5 -0.5 0.866025 540.35 375.283)"/><path d="M3.82247 0 58.5596 0C60.6707 -9.92761e-16 62.382 1.71138 62.382 3.82248L62.382 22.9346 0 22.9346 0 3.82248C-4.96379e-16 1.71138 1.71138 -9.92761e-16 3.82247 -9.92761e-16Z" stroke="#ECDFF5" stroke-width="1.33333" stroke-miterlimit="8" fill="#7030A0" fill-rule="evenodd" transform="matrix(0.866025 0.5 0.5 -0.866025 493.007 457.283)"/><path d="M572.106 327.925 619.51 355.293C621.338 356.349 621.964 358.687 620.909 360.515L611.353 377.067 557.328 345.876 566.884 329.324C567.94 327.496 570.278 326.869 572.106 327.925Z" stroke="#ECDFF5" stroke-width="1.33333" stroke-miterlimit="8" fill="#7030A0" fill-rule="evenodd"/><rect x="590" y="190" width="123" height="28" fill="#AA70D2"/><rect x="638" y="142" width="28" height="123" fill="#AA70D2"/></g></svg>